<?xml version="1.0" encoding="utf-8"?>
<!-- Generator: Adobe Illustrator 22.1.0, SVG Export Plug-In . SVG Version: 6.00 Build 0)  -->
<svg version="1.1" id="Layer_1" xmlns="http://www.w3.org/2000/svg" xmlns:xlink="http://www.w3.org/1999/xlink" x="0px" y="0px"
	 viewBox="0 0 122.9 112.1" style="enable-background:new 0 0 122.9 112.1;" xml:space="preserve">
<style type="text/css">
	.st0{fill:#1E5C3F;}
</style>
<title>retail-store</title>
<path class="st0" d="M69.2,87.2c1,0,1.7,0.8,1.7,1.8c0,1-0.8,1.7-1.8,1.7c-1,0-1.7-0.8-1.7-1.7C67.4,88,68.2,87.3,69.2,87.2
	L69.2,87.2z M114.6,52.6v53c0,3.6-2.9,6.5-6.5,6.5H14.8c-1.7,0-3.4-0.7-4.6-1.9l0,0c-1.2-1.2-1.9-2.9-1.9-4.6V52.7
	c1.8,0.3,3.6,0.4,5.4,0.3v52.6c0,0.3,0.1,0.6,0.3,0.8l0,0c0.2,0.2,0.5,0.3,0.8,0.3h45V66.4c0-5.4,4.4-9.7,9.7-9.7h16.1
	c5.4,0,9.7,4.4,9.7,9.7v40.4H108c0.6,0,1.1-0.5,1.1-1.1V52.8C111,53,112.8,52.9,114.6,52.6z M64.3,106.8h26.5V66.4
	c0-2.9-2.3-5.2-5.2-5.2H69.6c-2.9,0-5.2,2.3-5.2,5.2V106.8z M30,64.1h16.1c1.2,0,2.3,1,2.3,2.3v23.9c0,1.2-1,2.3-2.3,2.3H30
	c-1.2,0-2.3-1-2.3-2.3V66.3C27.7,65.1,28.8,64.1,30,64.1z M43.8,68.6H32.3V88h11.6C43.8,88,43.8,68.6,43.8,68.6z M106.1,46.4
	c-1.3-0.6-4.3-1.4-5.3-2.3c-0.8-0.9-1.6-1.8-2.1-2.9c-0.6,1.1-1.3,2-2.1,2.9c-2.1,2.1-7,3.5-10.3,3.5S78.1,46.2,76,44
	c-0.8-0.9-1.6-1.8-2.1-2.9c-0.6,1.1-1.3,2-2.1,2.9c-2.1,2.1-7,3.5-10.3,3.5s-8.2-1.3-10.3-3.5c-0.9-0.8-1.6-1.8-2.2-2.9
	c-0.6,1.1-1.3,2-2.1,2.9c-2.1,2.1-7,3.5-10.3,3.5s-8.1-1.3-10.3-3.5c-0.8-0.9-1.6-1.8-2.1-2.9c-0.6,1.1-1.3,2-2.1,2.9
	c-1.4,1.4-5.1,2.5-7.1,3C11,47.5,6.4,47,3.4,44C1.2,41.8,0,38.8,0,35.7v-4.6l0,0c0-0.2,0.1-0.5,0.2-0.7L8.5,3.8
	c0.7-2.2,2.4-3.6,5.6-3.8h94.1c2.9,0.3,4.8,1.5,5.6,3.7l9,26.6c0.1,0.2,0.2,0.4,0.2,0.6l0,0c0,0,0,0.1,0,0.1v4.6
	c0,3.1-1.3,6.1-3.5,8.3C116,47.5,110.7,47.4,106.1,46.4L106.1,46.4z"/>
</svg>
