<?xml version="1.0" encoding="utf-8"?>
<!-- Generator: Adobe Illustrator 22.1.0, SVG Export Plug-In . SVG Version: 6.00 Build 0)  -->
<svg version="1.1" id="Layer_1" xmlns="http://www.w3.org/2000/svg" xmlns:xlink="http://www.w3.org/1999/xlink" x="0px" y="0px"
	 viewBox="0 0 122.7 122.9" style="enable-background:new 0 0 122.7 122.9;" xml:space="preserve">
<style type="text/css">
	.st0{fill:#1E5C3F;}
</style>
<g>
	<path class="st0" d="M5.7,24h47.7V5.7c0-1.6,0.6-3,1.7-4.1c1-1,2.4-1.6,3.9-1.6h58.2c1.5,0,2.9,0.6,3.9,1.6c1,1,1.7,2.5,1.7,4.1
		v87.5c0,1.6-0.6,3-1.7,4.1c-1,1-2.4,1.6-3.9,1.6H69.5v18.3c0,1.6-0.6,3-1.7,4.1c-1,1-2.4,1.6-3.9,1.6H5.7c-1.5,0-2.9-0.6-3.9-1.6
		c-1-1-1.7-2.5-1.7-4.1V74.4C0,74.1,0,73.8,0,73.4c0-0.3,0-0.7,0.1-1V29.7c0-1.6,0.6-3,1.7-4.1C2.8,24.6,4.2,24,5.7,24L5.7,24z
		 M94.1,29.1c1.4-1.5,3.7-1.5,5.2-0.1c1.5,1.4,1.5,3.7,0.1,5.2L88.5,45.6h27.1V7.3H60.5V24h3.4c1.5,0,2.9,0.6,3.9,1.6
		c1,1,1.7,2.5,1.7,4.1v61.9h46.2V53H88.5l10.9,11.5c1.4,1.5,1.3,3.8-0.1,5.2c-1.5,1.4-3.8,1.3-5.2-0.1L77.3,51.8
		c-1.3-1.4-1.4-3.6,0-5.1L94.1,29.1L94.1,29.1z M22.9,58.3c-1.4-1.5-1.3-3.8,0.1-5.2c1.5-1.4,3.8-1.3,5.2,0.1l16.8,17.6
		c1.4,1.4,1.3,3.7,0,5.1L28.3,93.6c-1.4,1.5-3.7,1.5-5.2,0.1c-1.5-1.4-1.5-3.7-0.1-5.2l10.9-11.5H7.2v38.5h55.1V31.3H7.2v38.5h26.6
		L22.9,58.3L22.9,58.3z"/>
</g>
</svg>
