<?xml version="1.0" encoding="utf-8"?>
<!-- Generator: Adobe Illustrator 22.1.0, SVG Export Plug-In . SVG Version: 6.00 Build 0)  -->
<svg version="1.1" id="Layer_1" xmlns="http://www.w3.org/2000/svg" xmlns:xlink="http://www.w3.org/1999/xlink" x="0px" y="0px"
	 viewBox="0 0 122.9 122" style="enable-background:new 0 0 122.9 122;" xml:space="preserve">
<style type="text/css">
	.st0{fill:#1E5C3F;}
</style>
<g>
	<path class="st0" d="M107.7,1.3c-1-0.9-2.1-1.4-3.3-1.3c-1.2,0-2.3,0.5-3.2,1.4L94,9l20.4,19.7l7.3-7.7c0.9-0.9,1.2-2.1,1.2-3.3
		c0-1.2-0.5-2.4-1.4-3.2L107.7,1.3L107.7,1.3L107.7,1.3z M8.4,5.1h50.2v13h-44c-0.4,0-0.8,0.2-1.1,0.5c-0.3,0.3-0.5,0.7-0.5,1.1
		v87.7c0,0.4,0.2,0.8,0.5,1.1s0.7,0.5,1.1,0.5h87.7c0.4,0,0.8-0.2,1.1-0.5s0.5-0.7,0.5-1.1V65.1h13v48.5c0,2.3-0.9,4.4-2.5,5.9
		s-3.6,2.5-5.9,2.5H8.4C6,122,4,121,2.5,119.5C0.9,118,0,115.9,0,113.6V13.4c0-2.3,0.9-4.4,2.5-5.9C4,6,6.1,5.1,8.4,5.1L8.4,5.1z
		 M69.6,75.1c-2.7,0.9-5.4,1.7-8.1,2.6c-2.7,0.9-5.3,1.8-8.1,2.7c-6.4,2.1-9.9,3.2-10.6,3.4c-0.8,0.2-0.3-2.7,1.3-8.9l5.1-19.4
		l0.4-0.4L69.6,75.1L69.6,75.1L69.6,75.1L69.6,75.1z M57,47.3l31.4-32.6l20.4,19.6L77,67.3L57,47.3L57,47.3z"/>
</g>
</svg>
